:SAMPLES-PER-SECOND 30
:FRAME-RANGE 1-564
:FULLY-SPECIFIED
:DEGREES
318
root  14.5174 38.0249 -52.7594 -177.622 -36.7636 174.581
RightUpLeg  -20.4326 4.65009 -16.0988
RightLeg  13.1483 6.75696 0.217387
RightFoot  -2.43637 -1.12554 14.173
RightToes  1.21801e-010 1.2921e-014 -6.02303e-014
Spine  -7.30744 3.44223 9.35724
Spine1  5.86502 4.83401 -8.78805
HEad  16.7816 33.5464 -10.2296
LeftShoulder1  0.797998 -0.208466 -16.2042
LeftArm  -13.518 -0.255504 -31.4542
LeftForeArm  -23.0814 -19.8457 -5.99122
LeftHand  -0.0343582 4.85979 2.20581
RightShoulder  2.5097 5.75798 21.4846
RightArm  23.9462 35.937 72.9315
RightForeArm  18.3189 22.3005 4.38769
RightHand  0.233423 -7.48656 -14.1096
LeftUpLeg  4.97119 -21.5865 -5.90641
LeftLeg  22.8968 -10.4518 -4.4742
LeftFoot  -21.117 0.574627 5.23053
LeftToes  1.70735e-010 3.74918e-011 3.68705e-011
319
root  14.7083 37.9849 -53.9395 -178.117 -40.3111 176.013
RightUpLeg  -20.5996 3.27598 -14.5575
RightLeg  17.1655 4.5756 1.37802
RightFoot  -2.27613 -1.21364 15.0323
RightToes  1.21801e-010 1.2921e-014 -6.02303e-014
Spine  -6.53503 3.68698 11.2353
Spine1  5.54806 5.08626 -9.07543
HEad  15.7911 32.2223 -11.2643
LeftShoulder1  0.840409 -0.515088 -15.4277
LeftArm  -13.8424 -1.33995 -30.2817
LeftForeArm  -24.9127 -20.8876 -5.98995
LeftHand  -0.0293796 4.82469 0.797522
RightShoulder  2.52972 5.92867 21.1709
RightArm  23.2661 38.6911 73.9248
RightForeArm  15.944 22.6166 4.36234
RightHand  0.316599 -8.10024 -14.5072
LeftUpLeg  2.82895 -22.8677 -2.57986
LeftLeg  28.3842 -12.674 -6.98923
LeftFoot  -20.3393 0.381379 3.29308
LeftToes  1.70735e-010 3.74918e-011 3.68705e-011
320
root  14.9032 38.094 -54.9857 -178.619 -44.4042 177.281
RightUpLeg  -19.8311 0.792534 -12.2426
RightLeg  19.4435 3.37579 1.11377
RightFoot  -2.50944 -0.983474 12.4666
RightToes  1.21801e-010 1.2921e-014 -6.02303e-014
Spine  -5.67286 3.57802 12.4283
Spine1  5.28573 4.88372 -8.14933
HEad  15.0701 30.6699 -11.2982
LeftShoulder1  0.910913 -0.965414 -14.6977
LeftArm  -14.4754 -2.1639 -29.6675
LeftForeArm  -26.8481 -22.235 -6.09299
LeftHand  -0.0223599 4.74119 -0.751859
RightShoulder  2.54609 6.22742 20.4375
RightArm  20.4366 40.7988 75.2789
RightForeArm  15.7822 22.0777 4.52622
RightHand  0.123722 -7.04097 -10.4817
LeftUpLeg  -0.854156 -23.5979 0.836786
LeftLeg  35.061 -14.0123 -10.0146
LeftFoot  -16.6522 0.0799311 -0.430116
LeftToes  1.70735e-010 3.74918e-011 3.68705e-011
321
root  15.0803 38.3048 -55.9388 -179.258 -48.433 178.585
RightUpLeg  -18.3728 1.21742 -10.2618
RightLeg  19.8794 -0.639433 -0.474647
RightFoot  -2.42764 -0.807276 10.1191
RightToes  1.21801e-010 1.2921e-014 -6.02303e-014
Spine  -4.93335 3.63047 13.976
Spine1  5.36896 5.00423 -7.66808
HEad  14.3156 28.4373 -10.6163
LeftShoulder1  1.02765 -1.68661 -13.885
LeftArm  -13.3524 -3.79215 -29.0969
LeftForeArm  -27.7126 -23.8377 -6.3522
LeftHand  -0.0142424 4.68792 -2.22336
RightShoulder  2.517 6.42069 19.5455
RightArm  18.4923 42.9503 75.8155
RightForeArm  12.233 21.8384 4.74218
RightHand  0.112393 -7.1836 -9.07024
LeftUpLeg  -5.15871 -24.3649 3.57762
LeftLeg  41.0291 -12.2194 -10.8071
LeftFoot  -11.5716 0.0582805 -5.48295
LeftToes  1.70735e-010 3.74918e-011 3.68705e-011
322
root  15.2271 38.4604 -56.8669 -179.533 -51.4765 179.368
RightUpLeg  -17.2905 -1.46924 -8.4
RightLeg  20.2282 -1.17875 -0.736946
RightFoot  -2.97801 -0.625782 8.26657
RightToes  1.21801e-010 1.2921e-014 -6.02303e-014
Spine  -4.24714 3.74682 16.1421
Spine1  5.3378 5.65698 -9.76581
HEad  13.6089 26.4194 -9.12253
LeftShoulder1  0.969016 -1.75818 -12.2871
LeftArm  -11.9084 -5.97772 -28.95
LeftForeArm  -28.237 -25.4076 -6.73212
LeftHand  0.00636631 4.32174 -3.60791
RightShoulder  2.55693 6.64859 19.3416
RightArm  16.6543 45.249 76.3229
RightForeArm  9.54454 21.3277 5.02951
RightHand  0.145282 -7.61405 -9.11171
LeftUpLeg  -9.06872 -23.3077 4.89859
LeftLeg  45.0925 -6.31908 -6.34783
LeftFoot  -9.6708 0.145621 -6.01218
LeftToes  1.70735e-010 3.74918e-011 3.68705e-011
323
root  15.3379 38.6817 -57.7883 -178.969 -53.9515 179.008
RightUpLeg  -15.979 -4.8404 -7.32704
RightLeg  19.6807 -0.652003 -0.516875
RightFoot  -3.22074 -0.469815 6.302
RightToes  1.21801e-010 1.2921e-014 -6.02303e-014
Spine  -3.6233 4.05919 16.1756
Spine1  5.13021 6.15405 -10.343
HEad  13.1438 24.3866 -8.1728
LeftShoulder1  0.986917 -2.03157 -11.574
LeftArm  -11.3044 -7.51022 -29.0228
LeftForeArm  -28.2096 -27.4307 -7.22166
LeftHand  0.0255398 4.13947 -4.86308
RightShoulder  2.55061 6.85942 18.7
RightArm  15.2726 47.3465 76.2079
RightForeArm  7.99285 20.3761 5.49045
RightHand  0.0302533 -7.28495 -3.9858
LeftUpLeg  -11.7633 -20.914 4.6978
LeftLeg  46.6719 -1.2129 -0.95631
LeftFoot  -10.6373 0.0943726 -4.98595
LeftToes  1.70735e-010 3.74918e-011 3.68705e-011
324
root  15.4195 38.9032 -58.6192 -178.085 -56.4341 178.558
RightUpLeg  -14.8609 -6.91178 -6.47628
RightLeg  18.7556 -1.41697 -0.729213
RightFoot  -3.24332 -0.35116 4.64505
RightToes  1.21801e-010 1.2921e-014 -6.02303e-014
Spine  -3.463 4.52431 15.543
Spine1  5.32621 6.48785 -9.53628
HEad  12.4728 22.3121 -8.08461
LeftShoulder1  1.1023 -2.52816 -12.023
LeftArm  -11.0127 -9.28984 -28.853
LeftForeArm  -28.4907 -29.2426 -7.69106
LeftHand  0.035241 4.15659 -5.94183
RightShoulder  2.45572 7.02331 17.2705
RightArm  15.0832 48.793 75.509
RightForeArm  4.17444 20.4897 5.57473
RightHand  0.0240305 -7.83327 -2.98521
LeftUpLeg  -13.9417 -18.7139 3.80335
LeftLeg  45.8909 1.44402 2.01201
LeftFoot  -11.7039 0.0559374 -4.48307
LeftToes  1.70735e-010 3.74918e-011 3.68705e-011
325
root  15.4824 39.1009 -59.3724 -177.004 -58.7877 178.076
RightUpLeg  -14.0616 -7.77479 -5.76506
RightLeg  17.907 -3.19728 -1.15865
RightFoot  -3.2849 -0.272253 3.54621
RightToes  1.21801e-010 1.2921e-014 -6.02303e-014
Spine  -3.50809 4.99743 14.9262
Spine1  5.62699 6.78134 -8.68542
HEad  11.7197 20.3469 -8.43367
LeftShoulder1  1.22393 -2.92255 -12.8608
LeftArm  -10.1182 -11.1998 -28.5525
LeftForeArm  -29.4091 -31.3713 -8.29177
LeftHand  0.023842 4.43956 -6.61185
RightShoulder  2.27561 6.92941 15.583
RightArm  15.7023 50.0043 74.6093
RightForeArm  1.00762 20.9735 5.50853
RightHand  0.0131081 -8.62872 -2.05209
LeftUpLeg  -15.5123 -16.2159 2.41715
LeftLeg  42.885 1.70342 2.09115
LeftFoot  -12.5473 0.0306864 -4.22659
LeftToes  1.70735e-010 3.74918e-011 3.68705e-011
326
root  15.5139 39.2561 -60.0722 -175.833 -61.1836 177.554
RightUpLeg  -13.4081 -8.51035 -5.19944
RightLeg  17.1389 -5.12087 -1.41049
RightFoot  -3.47266 -0.235363 3.07674
RightToes  1.21801e-010 1.2921e-014 -6.02303e-014
Spine  -3.56349 5.21353 14.2241
Spine1  5.62622 6.78477 -7.87484
HEad  11.2683 18.587 -8.54959
LeftShoulder1  1.31401 -3.22013 -13.3959
LeftArm  -8.97986 -12.5065 -28.6185
LeftForeArm  -28.8044 -33.6024 -8.89441
LeftHand  0.0219642 4.52468 -7.15046
RightShoulder  2.12268 6.80731 14.2128
RightArm  17.8623 50.6096 73.026
RightForeArm  -2.96565 22.4445 5.26474
RightHand  -0.00134659 -9.60299 -1.34936
LeftUpLeg  -16.4152 -13.1967 0.714696
LeftLeg  38.0848 -0.405715 0.0306311
LeftFoot  -12.7291 0.0211473 -4.5489
LeftToes  1.70735e-010 3.74918e-011 3.68705e-011
327
root  15.513 39.4146 -60.7072 -174.502 -63.8741 176.741
RightUpLeg  -12.3587 -10.4539 -5.11585
RightLeg  15.9349 -6.07317 -0.641581
RightFoot  -3.76264 -0.133941 1.63511
RightToes  1.21801e-010 1.2921e-014 -6.02303e-014
Spine  -3.54838 5.0544 13.4539
Spine1  5.517 6.48894 -7.45027
HEad  10.7016 16.8967 -8.49082
LeftShoulder1  1.33038 -3.2973 -13.4101
LeftArm  -7.6208 -13.4243 -29.2025
LeftForeArm  -29.1523 -36.1766 -9.68103
LeftHand  0.0297013 4.51571 -8.22657
RightShoulder  2.04324 6.66825 13.6546
RightArm  17.3424 50.4464 69.7672
RightForeArm  -5.01963 25.2402 5.66503
RightHand  -0.00761614 -10.6724 -1.07314
LeftUpLeg  -16.3057 -11.8609 -1.27963
LeftLeg  31.6661 -2.59552 -1.37866
LeftFoot  -12.4017 0.0157217 -6.3201
LeftToes  1.70735e-010 3.74918e-011 3.68705e-011
328
root  15.4678 39.5677 -61.2781 -173.037 -66.5432 175.864
RightUpLeg  -11.292 -10.882 -5.0842
RightLeg  14.4721 -8.63611 -0.171219
RightFoot  -3.72192 -0.0944908 1.03846
RightToes  1.21801e-010 1.2921e-014 -6.02303e-014
Spine  -3.80947 4.69008 12.7403
Spine1  5.44926 6.04556 -7.40959
HEad  10.5151 15.5445 -7.82945
LeftShoulder1  1.33946 -3.50976 -12.8647
LeftArm  -7.19268 -13.0819 -30.4098
LeftForeArm  -28.1174 -39.53 -10.7385
LeftHand  0.0491963 4.34191 -8.96256
RightShoulder  1.93317 6.20267 13.4771
RightArm  13.5814 49.5292 66.4629
RightForeArm  -4.56741 28.3149 6.3661
RightHand  -0.118021 -11.8906 0.903561
LeftUpLeg  -15.5887 -12.2442 -3.04793
LeftLeg  24.4325 -2.81151 -1.06388
LeftFoot  -12.2803 0.0182761 -6.73475
LeftToes  1.70735e-010 3.74918e-011 3.68705e-011
329
root  15.3832 39.6977 -61.817 -171.893 -68.8838 175.161
RightUpLeg  -10.0933 -10.2585 -4.88382
RightLeg  12.9775 -11.7039 0.0567623
RightFoot  -3.77944 -0.0756971 0.753791
RightToes  1.21801e-010 1.2921e-014 -6.02303e-014
Spine  -4.0922 4.21711 11.8656
Spine1  5.32832 5.48198 -7.24291
HEad  10.7382 14.21 -6.7601
LeftShoulder1  1.30532 -3.40212 -12.6505
LeftArm  -5.97859 -12.6705 -31.0892
LeftForeArm  -25.9833 -43.3908 -12.0712
LeftHand  0.0406293 4.48153 -9.42031
RightShoulder  1.94269 5.99198 14.0962
RightArm  11.414 48.2027 61.9841
RightForeArm  -6.17527 32.018 7.39179
RightHand  -0.287969 -12.4455 3.47021
LeftUpLeg  -14.352 -15.1544 -4.12516
LeftLeg  17.3448 -1.22803 -0.105737
LeftFoot  -11.6236 0.056545 -5.30574
LeftToes  1.70735e-010 3.74918e-011 3.68705e-011
330
root  15.2671 39.7735 -62.3356 -171.679 -70.7592 175.367
RightUpLeg  -9.1577 -8.9147 -4.07775
RightLeg  11.8042 -15.0271 -0.156225
RightFoot  -3.84031 -0.0532302 0.409413
RightToes  1.21801e-010 1.2921e-014 -6.02303e-014
Spine  -4.64114 3.74229 11.1296
Spine1  5.43421 4.91074 -7.03232
HEad  11.1522 13.0598 -5.49331
LeftShoulder1  1.21916 -2.91975 -12.7859
LeftArm  -3.97103 -12.2186 -31.3098
LeftForeArm  -24.0414 -47.759 -13.8641
LeftHand  0.0227184 4.71045 -9.88176
RightShoulder  1.95438 5.88106 14.513
RightArm  9.70015 46.7203 58.1073
RightForeArm  -8.22899 35.1558 8.37511
RightHand  -0.452778 -12.6674 5.86831
LeftUpLeg  -12.8522 -14.0502 -5.55404
LeftLeg  11.4956 -5.56862 1.085
LeftFoot  -10.2913 0.0925738 -3.36818
LeftToes  1.70735e-010 3.74918e-011 3.68705e-011
